<svg width="82" height="82" viewBox="0 0 82 82" fill="none" xmlns="http://www.w3.org/2000/svg">
<g clip-path="url(#clip0_6_1157)">
<path d="M0 51.0989C0.0896875 50.9128 0.187917 50.7332 0.264792 50.5428C0.918229 48.9386 2.09271 48.0317 3.83094 47.882C4.0701 47.8606 4.31141 47.8585 4.55057 47.8563C6.48099 47.8435 7.18995 47.2852 7.47609 45.3666C7.53588 44.9623 7.29031 44.4447 7.04047 44.079C6.6988 43.5785 6.1863 43.1999 5.79979 42.7272C4.61036 41.2748 4.52068 39.1102 5.76776 37.7135C7.20276 36.1051 8.73172 34.5629 10.3376 33.1255C11.7811 31.8336 13.9165 31.9256 15.4156 33.164C15.8661 33.5362 16.2697 33.9661 16.6904 34.3768C17.1794 34.8559 17.7368 34.9907 18.3753 34.7361C18.7703 34.5779 19.1675 34.4196 19.5561 34.2485C20.1797 33.9747 20.5064 33.502 20.5021 32.809C20.4979 32.302 20.4872 31.7951 20.5149 31.2882C20.6409 29.1108 22.2468 27.4659 24.4228 27.3953C26.3681 27.3312 28.3199 27.3333 30.2653 27.3953C32.4135 27.4681 34.0001 29.0915 34.1325 31.2283C34.1453 31.4401 34.1517 31.654 34.1539 31.8678C34.1688 33.8485 34.6386 34.4581 36.6224 34.8067C37.0217 34.8773 37.5492 34.6506 37.9122 34.4025C38.4354 34.0474 38.8326 33.5127 39.3322 33.117C40.8591 31.9085 42.971 31.8807 44.4103 33.1854C45.9499 34.58 47.4255 36.058 48.8242 37.5937C50.1481 39.0461 50.1118 41.2043 48.8647 42.7357C48.4782 43.2106 48.0319 43.6341 47.6048 44.0747C47.1479 44.5453 47.0368 45.0843 47.2696 45.6917C47.3934 46.0147 47.5579 46.3227 47.6668 46.6521C47.9615 47.5504 48.5935 47.8649 49.5054 47.8649C50.272 47.8649 51.0664 47.8777 51.7967 48.0745C53.4324 48.5172 54.5642 49.961 54.6154 51.6593C54.6752 53.6314 54.6859 55.6078 54.6218 57.5799C54.5513 59.7573 52.9071 61.3551 50.729 61.4898C50.5432 61.5005 50.3553 61.5005 50.1695 61.5005C48.1494 61.5112 47.6006 61.9155 47.2141 63.9346C47.1351 64.3496 47.387 64.9036 47.6411 65.2907C47.9743 65.7933 48.4974 66.1677 48.8797 66.6425C50.0542 68.1034 50.1652 70.2017 48.9352 71.592C47.4703 73.2454 45.8922 74.8111 44.2437 76.2805C42.9069 77.4719 40.763 77.382 39.3557 76.2634C38.856 75.8655 38.4119 75.3993 37.9506 74.9565C37.4595 74.4838 36.9107 74.3384 36.2701 74.6228C35.9049 74.7854 35.5376 74.9437 35.1639 75.087C34.4806 75.3479 34.1709 75.857 34.156 76.5671C34.1474 76.9928 34.1624 77.4205 34.1474 77.8483C34.077 79.8183 33.0925 81.153 31.239 81.816C31.1216 81.8588 31.0169 81.9358 30.908 81.9978H23.8611C23.7437 81.9422 23.6284 81.8759 23.5045 81.8353C21.6061 81.2171 20.5406 79.7841 20.5 77.7799C20.4915 77.3264 20.5854 76.8495 20.468 76.4281C20.3505 76.0024 20.1242 75.4912 19.7825 75.2667C18.0229 74.1116 17.4805 74.1972 15.9879 75.6602C15.9302 75.7158 15.8747 75.7736 15.817 75.8292C13.9955 77.5275 11.6765 77.5617 9.8699 75.8591C8.59078 74.6528 7.35865 73.3951 6.13292 72.1331C4.90719 70.8712 4.52922 69.3504 5.17625 67.7227C5.4688 66.9869 6.05818 66.3388 6.61339 65.7441C7.67682 64.5998 7.73661 64.4651 7.12375 63.0085C7.05115 62.8373 6.97427 62.6684 6.90594 62.4951C6.64115 61.8192 6.14573 61.4941 5.42182 61.5112C5.31505 61.5134 5.20828 61.5048 5.10151 61.5112C2.53687 61.6994 0.783698 60.6578 0 58.1488C0 55.8003 0 53.4517 0 51.1032L0 51.0989ZM41.7367 74.4988C42.1723 74.287 42.5375 74.2036 42.7681 73.979C44.0729 72.7192 45.3669 71.4465 46.6204 70.1354C47.2333 69.4958 47.1842 68.8114 46.5798 68.1355C46.2595 67.7783 45.92 67.436 45.5677 67.1109C42.9454 64.6875 45.3926 59.353 47.9999 58.9338C48.3928 58.8696 48.7879 58.8097 49.1851 58.7841C49.61 58.7584 50.0392 58.7969 50.4663 58.7712C51.3909 58.7156 51.8992 58.2216 51.912 57.2997C51.9355 55.5393 51.9376 53.7769 51.912 52.0165C51.8992 51.1203 51.4059 50.6455 50.5176 50.5963C50.0648 50.5706 49.61 50.6006 49.1573 50.5813C47.3379 50.5022 46.014 49.6723 45.273 47.9825C45.0594 47.4948 44.848 47.005 44.6708 46.5024C44.1348 44.9859 44.4231 43.6127 45.4545 42.3978C45.7983 41.9914 46.2083 41.6427 46.5649 41.2449C47.2226 40.5112 47.2375 39.8268 46.5542 39.1209C45.3477 37.8761 44.1198 36.6483 42.8728 35.4441C42.2001 34.796 41.5082 34.8089 40.8078 35.4292C40.3893 35.7992 39.9942 36.1992 39.5992 36.5949C37.2438 38.9562 31.9971 36.6163 31.5743 33.9383C31.5038 33.4913 31.4611 33.04 31.4312 32.5887C31.4077 32.2443 31.4376 31.8935 31.4205 31.5491C31.3735 30.6166 30.9016 30.1161 29.9663 30.1032C28.2046 30.0797 26.4429 30.0797 24.6811 30.1054C23.7992 30.1182 23.3038 30.6187 23.244 31.4978C23.2077 32.0026 23.2504 32.5117 23.2248 33.0186C23.1458 34.6463 22.3941 35.8634 20.9335 36.5991C20.3398 36.8986 19.7184 37.1489 19.0906 37.3649C17.6022 37.8782 16.2484 37.5745 15.0568 36.5692C14.6297 36.2099 14.2646 35.7757 13.8439 35.4078C13.167 34.8131 12.4922 34.7811 11.8409 35.4056C10.549 36.6419 9.28693 37.9082 8.05052 39.1979C7.45901 39.814 7.49958 40.5497 8.08255 41.2021C8.41995 41.5807 8.7787 41.94 9.14599 42.2887C11.6743 44.6907 9.31255 49.9439 6.67958 50.4145C5.94927 50.5449 5.19547 50.5578 4.45234 50.5834C3.23516 50.6241 2.74401 51.0797 2.73547 52.2817C2.72266 53.8817 2.72266 55.4837 2.73547 57.0836C2.74615 58.2729 3.25651 58.752 4.46943 58.7798C5.10792 58.7948 5.75708 58.767 6.38276 58.8696C8.71463 59.2525 9.92969 61.6139 10.2329 64.0822C10.4336 65.7313 9.40224 66.8628 8.29396 67.9259C7.38641 68.7964 7.40562 69.498 8.28755 70.3942C9.24208 71.3631 10.2116 72.3192 11.1746 73.2817C12.6673 74.7726 13.0346 74.7918 14.4973 73.2946C15.4796 72.2914 16.6029 71.6069 18.0357 71.7674C19.4878 71.9299 20.8289 72.4796 21.9435 73.4443C22.787 74.1758 23.1885 75.1597 23.2291 76.2762C23.244 76.7019 23.2291 77.1297 23.2376 77.5574C23.259 78.7552 23.7544 79.2557 24.9566 79.2664C26.5048 79.2771 28.053 79.2729 29.6011 79.2664C30.9678 79.2622 31.4184 78.8087 31.4291 77.4419C31.4291 77.228 31.4291 77.0142 31.4291 76.8024C31.4525 73.6518 34.7838 71.1107 37.8695 71.8615C38.9692 72.1288 39.723 72.8582 40.4982 73.5983C40.8633 73.9491 41.3267 74.1993 41.7453 74.4945L41.7367 74.4988Z" fill="#003C71"/>
<path d="M82 41.8117C81.7608 42.3101 81.5772 42.847 81.274 43.3004C80.3963 44.6094 79.098 45.1185 77.5626 45.1185C76.3625 45.1185 75.1603 45.142 73.9602 45.1121C73.0654 45.0886 72.5187 45.45 72.2091 46.3056C71.829 47.3558 71.3678 48.3782 70.93 49.407C70.4986 50.4209 70.5499 50.7503 71.3336 51.5438C72.1771 52.3973 73.0377 53.2379 73.8769 54.0956C75.7774 56.0334 75.7795 58.3884 73.8641 60.3241C72.081 62.1272 70.2894 63.9197 68.4828 65.6992C66.5823 67.5687 64.2248 67.5729 62.3093 65.7099C60.932 64.3688 59.5781 63.0042 58.2264 61.6396C57.4876 60.8931 57.4214 60.0354 58.0299 59.46C58.6236 58.8975 59.4094 58.9745 60.1483 59.7017C61.4786 61.0129 62.7898 62.3433 64.118 63.6566C65.0576 64.587 65.726 64.5913 66.6485 63.6737C68.4081 61.924 70.1655 60.1701 71.9123 58.4076C72.7771 57.535 72.775 56.874 71.9187 55.9971C71.0603 55.118 70.1826 54.2603 69.322 53.3854C67.8379 51.8775 67.556 50.3439 68.376 48.4189C68.8352 47.3408 69.2793 46.2564 69.7171 45.1698C70.441 43.371 71.7564 42.417 73.7039 42.3871C74.9574 42.3678 76.213 42.3914 77.4665 42.3764C78.7862 42.3636 79.2667 41.8887 79.2709 40.5947C79.2773 38.1392 79.2773 35.6837 79.2709 33.2303C79.2667 31.9406 78.7712 31.4465 77.4729 31.4358C76.245 31.4251 75.0172 31.4443 73.7893 31.4294C71.782 31.4058 70.4602 30.4925 69.7192 28.6573C69.2708 27.5451 68.8159 26.4371 68.3483 25.3356C67.5667 23.4897 67.8465 21.9454 69.2601 20.5016C70.1378 19.6054 71.0389 18.7327 71.9144 17.8344C72.775 16.9531 72.7814 16.2943 71.9166 15.4217C70.1506 13.6399 68.376 11.8668 66.5951 10.1C65.7217 9.23588 65.064 9.24016 64.1821 10.1C63.3044 10.9577 62.446 11.8368 61.5726 12.6988C60.0714 14.1789 58.5232 14.4613 56.6035 13.6378C55.5507 13.1865 54.4916 12.7501 53.4281 12.3266C51.4977 11.5566 50.5966 10.2519 50.5795 8.14503C50.5688 6.91728 50.5902 5.68954 50.5731 4.46179C50.556 3.26186 50.0499 2.75279 48.8562 2.74851C46.3471 2.73782 43.838 2.73782 41.3289 2.74851C40.1672 2.75279 39.659 3.24047 39.6333 4.39335C39.6077 5.64676 39.6397 6.90231 39.6205 8.15572C39.5885 10.3096 38.6873 11.5673 36.6822 12.3544C35.591 12.7822 34.5147 13.2464 33.4364 13.7041C31.7003 14.442 30.1457 14.1447 28.7918 12.8592C27.8437 11.9587 26.9404 11.0112 26.0051 10.0979C25.1274 9.24015 24.4676 9.24016 23.5942 10.1043C21.8133 11.871 20.0388 13.6442 18.2706 15.4259C17.4229 16.2815 17.4293 16.9681 18.2877 17.8408C19.5604 19.1348 20.8523 20.4096 22.1315 21.6973C22.3365 21.9047 22.5479 22.1186 22.6952 22.3667C23.0476 22.9485 22.9322 23.5175 22.471 23.9731C22.0076 24.4329 21.4396 24.5142 20.8588 24.1699C20.6559 24.0501 20.4722 23.8854 20.3035 23.7185C18.9604 22.3817 17.6086 21.0534 16.2868 19.6974C14.429 17.7916 14.4354 15.4238 16.306 13.5244C18.0848 11.7192 19.8786 9.92675 21.6852 8.14716C23.6198 6.23924 25.9816 6.2478 27.9184 8.1493C28.794 9.00915 29.6673 9.87114 30.5236 10.7524C31.1194 11.3662 31.7472 11.4967 32.5416 11.1267C33.5794 10.6433 34.6386 10.2027 35.7127 9.80483C36.522 9.50538 36.9 8.99846 36.8936 8.12578C36.8829 6.66061 36.8466 5.18689 36.9641 3.72814C37.1328 1.63627 38.7236 0.0983851 40.8099 0.0491898C43.665 -0.0192558 46.5222 -0.0256726 49.3772 0.0491898C51.6557 0.10908 53.2487 1.89081 53.3021 4.28212C53.332 5.56334 53.3342 6.84456 53.3 8.12364C53.2786 8.96209 53.6353 9.4733 54.404 9.77489C55.5187 10.2134 56.627 10.6711 57.7224 11.1566C58.4528 11.4817 59.0528 11.3727 59.608 10.8058C60.4857 9.90964 61.374 9.02412 62.2709 8.14716C64.212 6.24352 66.5609 6.2371 68.5042 8.14716C70.3129 9.92461 72.1088 11.7149 73.8876 13.5201C75.7945 15.4537 75.7753 17.8087 73.8641 19.7508C73.0035 20.6257 72.1429 21.5026 71.2589 22.3539C70.6353 22.9528 70.535 23.5817 70.898 24.3709C71.387 25.434 71.8141 26.527 72.2411 27.6178C72.5273 28.3493 73.0078 28.7279 73.8192 28.7044C74.8058 28.6766 75.7966 28.7493 76.781 28.6894C79.3542 28.5333 81.1779 29.4915 81.9936 32.0432V41.8096L82 41.8117Z" fill="#65B947"/>
<path d="M45.0808 19.1755C53.6331 19.1455 61.1455 25.342 62.5549 33.7309C63.5436 39.6151 61.989 44.8126 57.8954 49.206C57.2057 49.9461 56.407 50.0616 55.7942 49.5247C55.1514 48.96 55.1706 48.143 55.9159 47.3537C58.0235 45.1271 59.3945 42.5347 59.954 39.5102C61.1348 33.1277 58.0598 26.7794 52.2216 23.571C46.772 20.5765 39.6675 21.4834 35.0379 25.7612C34.8415 25.943 34.6514 26.1313 34.4379 26.2895C33.7673 26.7922 32.9879 26.743 32.501 26.1783C32.0142 25.6136 32.0419 24.8115 32.6761 24.2511C33.5538 23.4769 34.44 22.694 35.4137 22.0502C38.3201 20.1294 41.6171 19.1862 45.0786 19.1733L45.0808 19.1755Z" fill="#65B947"/>
<path d="M27.3462 42.3956C34.2307 42.4833 39.7145 47.9846 39.612 54.7394C39.4967 62.4951 33.8699 66.8521 27.3141 66.9291C20.3334 67.0104 14.9629 61.3508 15.0462 54.2966C15.123 47.7836 20.7755 42.3122 27.344 42.3978L27.3462 42.3956ZM27.2885 45.1292C21.9393 45.1677 17.741 49.4348 17.7688 54.81C17.7944 60.061 22.1315 64.2704 27.4721 64.2255C32.6932 64.1827 36.9 59.8621 36.8658 54.5789C36.8317 49.3193 32.5459 45.0907 27.2906 45.127L27.2885 45.1292Z" fill="#003C71"/>
</g>
<defs>
<clipPath id="clip0_6_1157">
<rect width="82" height="82" fill="white"/>
</clipPath>
</defs>
</svg>
