<svg width="70" height="91" viewBox="0 0 70 91" fill="none" xmlns="http://www.w3.org/2000/svg">
<g clip-path="url(#clip0_6_1125)">
<path d="M29.718 91C28.2914 90.7009 26.8226 90.53 25.4477 90.0718C23.7908 89.5187 22.2209 88.6996 20.5946 88.0444C19.9906 87.7999 19.3396 87.6599 18.698 87.5364C18.3314 87.4652 17.9365 87.5507 17.5582 87.5198C16.2679 87.4106 15.2197 87.5673 14.2914 88.778C13.2738 90.1074 11.6334 90.5537 9.95065 90.5608C7.19624 90.5727 4.43949 90.5751 1.68508 90.5608C0.618098 90.5561 -0.0140989 90.0077 2.13805e-06 89.1721C0.0141032 88.3293 0.6416 87.8284 1.72268 87.826C4.35958 87.8189 6.99883 87.8308 9.63572 87.8213C12.1904 87.8142 13.577 86.3993 13.5911 83.8022C13.5981 82.6176 13.5887 81.433 13.5934 80.2484C13.6005 79.014 14.0893 78.3659 14.98 78.3849C15.8472 78.4063 16.3079 79.0306 16.3126 80.2152C16.3173 81.6942 16.3126 83.1731 16.3126 84.7922C17.4054 84.7922 18.4818 84.7447 19.5511 84.8111C20.1105 84.8468 20.7309 84.9607 21.1986 85.2503C24.6769 87.3892 28.4512 88.3127 32.5029 88.2961C39.0388 88.2676 45.5746 88.3103 52.1105 88.2605C52.8884 88.2557 53.7485 88.0207 54.4207 87.6314C55.5229 86.9928 55.9154 85.6183 55.5817 84.3625C55.2644 83.1684 54.2374 82.2687 53.0153 82.1167C52.8696 82.0977 52.7215 82.112 52.5758 82.0882C51.8214 81.9624 51.3278 81.5589 51.3231 80.7422C51.3184 79.9351 51.765 79.4983 52.5476 79.3843C52.8954 79.3345 53.2526 79.3084 53.5864 79.2039C54.8884 78.8004 55.8167 77.4021 55.6992 76.0632C55.5699 74.5676 54.4653 73.3949 53.0153 73.2169C52.9283 73.205 52.839 73.2097 52.7521 73.1979C51.8096 73.0815 51.3278 72.621 51.3184 71.8329C51.309 71.0376 51.7744 70.577 52.7192 70.4394C54.3854 70.1996 55.3302 69.3901 55.6287 67.9467C55.9788 66.2446 54.8155 64.5757 53.1022 64.3217C52.8414 64.2837 52.5734 64.2695 52.322 64.203C51.6757 64.0345 51.3326 63.5977 51.3231 62.9211C51.3137 62.2422 51.6569 61.8006 52.2938 61.6131C52.5429 61.5395 52.8132 61.5395 53.074 61.5039C54.5358 61.3045 55.671 60.0154 55.7109 58.5127C55.7485 57.0266 54.6557 55.6592 53.1915 55.4385C52.5593 55.3435 51.906 55.3839 51.2644 55.3506C50.3126 55.3008 49.7556 54.7785 49.772 53.9643C49.7885 53.1595 50.3666 52.6135 51.3184 52.6396C52.3079 52.6657 53.3396 52.6396 54.275 52.9055C58.2726 54.0473 59.7062 58.9899 57.027 62.2066C56.8414 62.4297 56.6416 62.641 56.4042 62.9092C57.6545 64.1484 58.4066 65.6037 58.3972 67.3936C58.3878 69.1503 57.6451 70.5794 56.4395 71.7735C59.0858 75.2157 59.0858 77.6229 56.4841 80.6568C56.9495 81.3594 57.5065 82.017 57.859 82.7696C59.309 85.8675 57.7438 89.5234 54.5358 90.6629C54.2374 90.7697 53.9436 90.886 53.6475 90.9976H29.7227L29.718 91Z" fill="#65B947"/>
<path d="M14.2938 23.1126C11.2832 23.1126 8.41598 23.1126 5.54642 23.1126C5.19389 23.1126 4.84137 23.1197 4.49119 23.1102C3.37486 23.0723 2.59695 22.5429 2.24912 21.5767C1.88484 20.563 2.17157 19.7108 2.93067 19.0081C5.68038 16.4727 8.43713 13.9445 11.1915 11.4139C14.879 8.02627 18.5664 4.64104 22.2515 1.25106C24.0329 -0.386956 25.9506 -0.429687 27.7415 1.2107C34.1692 7.09806 40.5828 13.0044 47.0059 18.8989C47.8214 19.6467 48.1575 20.5321 47.7885 21.6099C47.4548 22.5856 46.5899 23.1102 45.3396 23.1126C42.4959 23.1197 39.6522 23.1126 36.8085 23.115C36.4888 23.115 36.1692 23.115 35.7227 23.115C35.7227 23.4806 35.7227 23.7939 35.7227 24.1073C35.7227 25.9423 35.7368 27.7798 35.7133 29.6148C35.7015 30.4884 35.1234 31.0416 34.3431 31.0154C33.6005 30.9917 33.067 30.4528 33.0599 29.6148C33.0411 27.0082 33.0388 24.4017 33.0599 21.7975C33.067 20.8574 33.584 20.4063 34.6087 20.404C37.5699 20.3921 40.5311 20.3992 43.4924 20.3992C43.772 20.3992 44.0517 20.3992 44.3314 20.3992C44.3925 20.3019 44.4536 20.2022 44.5147 20.1048C44.2726 19.9505 44.0047 19.8247 43.7955 19.6348C37.8707 14.2009 31.953 8.75744 26.0306 3.31875C25.2456 2.59708 24.8531 2.56622 24.141 3.21668C18.0423 8.80966 11.9483 14.4098 5.85429 20.0099C5.79084 20.0669 5.74853 20.1452 5.55347 20.3992C5.9906 20.3992 6.28437 20.3992 6.5758 20.3992C9.45006 20.3992 12.322 20.3968 15.1962 20.3992C16.6016 20.4016 17.02 20.8289 17.0223 22.2627C17.027 24.5132 17.0364 26.7637 17.0153 29.0142C17.0059 29.94 16.416 30.5573 15.6475 30.5478C14.879 30.5383 14.3525 29.9305 14.3055 28.9834C14.2961 28.7768 14.3032 28.5679 14.3032 28.3614C14.3032 26.9394 14.3032 25.5174 14.3032 24.0978C14.3032 23.8058 14.3032 23.5162 14.3032 23.1126H14.2938Z" fill="#003C71"/>
<path d="M42.04 52.6301C43.1328 52.6301 44.1269 52.6182 45.121 52.6325C46.0682 52.6467 46.6627 53.1571 46.6933 53.9453C46.7262 54.7809 46.141 55.3293 45.1328 55.3483C43.9318 55.372 42.7285 55.3696 41.5276 55.3506C39.7015 55.3245 38.8602 54.2088 39.302 52.4212C39.9107 49.9571 40.6674 47.5262 40.6933 44.9457C40.7191 42.3629 40.2679 39.8868 39.309 37.4987C39.0294 36.8007 38.5922 36.3402 37.8049 36.3782C37.0129 36.4161 36.6204 36.9289 36.4207 37.6458C36.0164 39.0963 35.6075 40.5468 35.1962 41.9949C34.6322 43.9819 33.584 45.6674 32.0376 47.0181C28.3361 50.2514 24.6275 53.48 20.8931 56.6753C20.5264 56.9887 19.96 57.1643 19.4712 57.2023C18.4559 57.283 17.4313 57.226 16.2914 57.226C16.2914 57.6391 16.2914 57.981 16.2914 58.3228C16.3008 63.2962 16.3102 68.272 16.3126 73.2454C16.3126 73.5967 16.3079 73.9623 16.2209 74.2994C16.0494 74.9522 15.5652 75.2869 14.9142 75.2679C14.2656 75.249 13.8002 74.8929 13.6663 74.2234C13.5981 73.8792 13.5958 73.5184 13.5958 73.1646C13.5911 68.2197 13.5958 63.2748 13.5911 58.3299C13.5911 55.5334 12.2562 54.1803 9.51116 54.1779C7.01997 54.1779 4.52879 54.1779 2.0376 54.1779C1.74618 54.1779 1.44536 54.1945 1.16099 54.1352C0.441831 53.9904 -1.79e-06 53.5346 0.0117491 52.7844C0.0235 52.0366 0.465333 51.5618 1.19859 51.474C1.77673 51.4028 2.36898 51.436 2.95417 51.436C5.26909 51.4336 7.58637 51.4242 9.90129 51.4384C12.0282 51.4503 13.7415 52.3144 15.0787 53.9975C15.2926 54.2658 15.725 54.4391 16.0823 54.5008C18.282 54.8782 20.0047 54.1257 21.6428 52.5423C24.3079 49.9666 27.1962 47.6282 30.0094 45.2116C31.349 44.0602 32.2397 42.6477 32.7027 40.9409C33.074 39.5735 33.4501 38.2061 33.8496 36.8458C34.4089 34.9372 35.9036 33.7027 37.7086 33.6291C39.4924 33.5556 41.0435 34.6048 41.7861 36.4375C43.6028 40.9148 43.8731 45.4988 42.6674 50.1778C42.4677 50.9494 42.275 51.7209 42.04 52.6372V52.6301Z" fill="#65B947"/>
<path d="M54.1175 39.9652C53.2103 39.9652 52.4512 39.977 51.6921 39.9628C50.6392 39.9414 49.812 39.5212 49.3936 38.4957C48.9965 37.52 49.2268 36.6535 49.9036 35.8725C52.51 32.8671 55.1022 29.8475 57.7133 26.8492C58.8273 25.5696 60.322 25.5459 61.443 26.8278C64.0822 29.8427 66.6909 32.8861 69.309 35.92C69.9835 36.701 70.2092 37.5841 69.772 38.5503C69.3208 39.545 68.4912 39.9652 67.4336 39.9699C66.6792 39.9723 65.9248 39.9699 65.074 39.9699C65.074 40.6061 65.074 41.1593 65.074 41.7148C65.074 44.1124 65.0811 46.5101 65.0693 48.9078C65.0646 49.9119 64.5194 50.5126 63.6874 50.4912C62.8907 50.4698 62.3972 49.9001 62.3948 48.9196C62.3831 45.8715 62.376 42.821 62.3948 39.7729C62.4066 38.1966 63.2785 37.3064 64.8367 37.2304C65.4171 37.2019 65.9976 37.2256 66.8508 37.2256C64.3502 34.3294 62 31.6089 59.5911 28.8195C57.1892 31.597 54.8461 34.3057 52.3243 37.2233C53.0294 37.2233 53.53 37.2185 54.0305 37.2233C55.8989 37.247 56.7967 38.1372 56.7991 39.9937C56.8061 42.9539 56.8061 45.9142 56.7991 48.8745C56.7967 49.8217 56.3643 50.3891 55.624 50.4864C54.7661 50.5956 54.1293 49.976 54.1222 48.9552C54.1057 46.3202 54.1151 43.6875 54.1151 41.0524C54.1151 40.7343 54.1151 40.4138 54.1151 39.9723L54.1175 39.9652Z" fill="#003C71"/>
<path d="M17.0176 39.7349C17.0176 41.1854 17.0294 42.6359 17.0129 44.0863C17.0012 45.1285 16.5076 45.703 15.6686 45.7101C14.8202 45.7196 14.3079 45.1594 14.3008 44.1124C14.2844 41.1522 14.2844 38.1919 14.3008 35.2316C14.3055 34.2369 14.886 33.6054 15.6851 33.6292C16.4841 33.6505 17.0035 34.2796 17.0129 35.2933C17.027 36.7722 17.0176 38.2536 17.0176 39.7325V39.7349Z" fill="#65B947"/>
</g>
<defs>
<clipPath id="clip0_6_1125">
<rect width="70" height="91" fill="white"/>
</clipPath>
</defs>
</svg>
