<svg width="76" height="80" viewBox="0 0 76 80" fill="none" xmlns="http://www.w3.org/2000/svg">
<g clip-path="url(#clip0_6_1152)">
<path d="M63.9792 0C64.3889 0.452968 64.9063 0.847489 65.1872 1.36934C66.0679 2.99752 66.8408 4.67997 67.7046 6.31859C67.8439 6.5816 68.2009 6.84879 68.4944 6.8968C70.469 7.2287 72.4521 7.51259 74.4351 7.78604C75.1574 7.88624 75.6684 8.20561 75.9092 8.89863C76.1584 9.61461 75.8522 10.1594 75.3474 10.6437C74.0043 11.9316 72.6844 13.2446 71.3116 14.5033C70.8301 14.9459 70.6908 15.3675 70.8132 16C71.168 17.8119 71.4447 19.6384 71.7847 21.4544C71.9178 22.1599 71.7995 22.7611 71.2145 23.1995C70.5957 23.6608 69.9389 23.5856 69.2821 23.2433C67.5588 22.3416 65.825 21.4607 64.1123 20.5401C63.6899 20.3126 63.3689 20.3251 62.9528 20.5485C61.2612 21.4544 59.5464 22.3144 57.8506 23.2078C57.198 23.5522 56.5539 23.6671 55.9119 23.235C55.2255 22.7716 55.1685 22.0869 55.2973 21.3521C55.4599 20.4378 55.6204 19.5215 55.8084 18.4652C55.3881 18.6385 55.103 18.7512 54.8242 18.8723C51.1116 20.4879 47.4073 22.1182 43.6841 23.7088C43.0928 23.9614 42.8795 24.2411 42.9027 24.9028C42.9935 27.5726 41.4582 29.8896 39.0274 30.8916C36.6199 31.8831 33.9442 31.3258 32.016 29.4721C31.8238 29.2885 31.3972 29.1152 31.1945 29.2008C26.1197 31.3738 21.0596 33.5823 15.9974 35.7866C15.9531 35.8053 15.9193 35.8492 15.8792 35.8805C15.8158 39.999 14.0651 42.3911 10.6375 43.0361C7.75903 43.5768 4.77495 41.9507 3.65566 39.2329C2.52158 36.4775 3.50994 33.313 6.01673 31.6493C8.14972 30.232 11.7505 29.8855 14.5635 32.9602C16.6859 32.0376 18.8252 31.1066 20.9667 30.1756C23.8367 28.9294 26.7004 27.6707 29.5789 26.4475C30.0858 26.2325 30.2758 25.9945 30.2547 25.4205C30.1576 22.6609 31.6338 20.3669 34.0941 19.3336C36.5671 18.2962 39.2027 18.866 41.2111 20.8324C41.3779 20.9952 41.7855 21.1037 41.9841 21.0181C46.5964 19.0351 51.1982 17.0228 55.7999 15.0147C55.8654 14.9855 55.9182 14.9333 55.876 14.9626C54.668 13.7018 53.4621 12.4368 52.2499 11.176C52.0514 10.9673 51.8402 10.771 51.629 10.5748C51.12 10.0989 50.9447 9.5165 51.1644 8.86732C51.384 8.21396 51.8887 7.89041 52.5836 7.79648C54.4378 7.54808 56.2857 7.24749 58.1441 7.02414C58.8431 6.94064 59.2528 6.66719 59.5506 6.02218C60.2581 4.48376 61.0142 2.96621 61.8209 1.47789C62.1187 0.930985 62.6192 0.492629 63.0268 0.00417482C63.3435 0.00417482 63.6603 0.00417482 63.9771 0.00417482L63.9792 0ZM68.1185 19.0915C67.92 17.9058 67.7996 16.8183 67.542 15.762C67.2505 14.5764 67.4744 13.66 68.4564 12.848C69.3033 12.1466 70.0213 11.295 70.866 10.4371C69.808 10.2847 68.8492 10.0571 67.8841 10.0258C66.3783 9.97991 65.4385 9.3349 64.9106 7.93425C64.5621 7.00952 64.032 6.15369 63.5125 5.13085C62.8409 6.46262 62.2454 7.61696 61.6731 8.78382C61.3584 9.42675 60.8811 9.7983 60.1525 9.86093C59.7597 9.89433 59.369 9.96321 58.9783 10.0217C58.066 10.1615 57.1536 10.3035 56.2603 10.4412C57.2318 11.4453 58.1293 12.395 59.0543 13.3177C59.5591 13.8228 59.7555 14.3697 59.614 15.0836C59.3563 16.3778 59.1557 17.6825 58.9128 19.0915C60.0385 18.5112 61.0944 18.031 62.0785 17.4382C63.0711 16.8412 63.9623 16.8308 64.957 17.434C65.939 18.029 66.995 18.507 68.1164 19.0873L68.1185 19.0915ZM9.51399 33.7388C7.77803 33.7513 6.35041 35.1708 6.36097 36.8741C6.37153 38.5712 7.81816 39.9948 9.53934 39.9969C11.3112 40.001 12.7367 38.567 12.7114 36.8094C12.686 35.0789 11.2774 33.7263 9.51399 33.7367V33.7388ZM39.7518 25.1241C39.7624 23.3853 38.3685 21.9888 36.6072 21.9763C34.8459 21.9616 33.4183 23.3435 33.4077 25.0698C33.3972 26.7856 34.8185 28.2197 36.5523 28.2406C38.2777 28.2614 39.7391 26.8378 39.7518 25.1241Z" fill="#003C71"/>
<path d="M54.0661 57.5082C54.0661 50.7658 54.0619 44.0256 54.0682 37.2832C54.0703 34.6677 55.4726 32.8037 57.8252 32.2797C58.2307 32.19 58.6615 32.1753 59.0818 32.1733C62.0891 32.1649 65.0985 32.1607 68.1058 32.1712C71.1533 32.1816 73.1553 34.1563 73.1574 37.1663C73.1616 50.7804 73.1595 64.3924 73.1574 78.0065C73.1574 79.4385 72.5936 79.9979 71.1511 80C66.1376 80.0021 61.124 80.0021 56.1104 80C54.6173 80 54.0661 79.4594 54.0661 77.9669C54.0619 71.1473 54.0661 64.3277 54.0661 57.5082ZM69.9558 76.8355C69.9685 76.5662 69.9833 76.3867 69.9833 76.2051C69.9833 63.211 69.9854 50.2168 69.9833 37.2248C69.9833 35.8513 69.4088 35.3044 67.9897 35.3023C65.1386 35.2981 62.2876 35.3002 59.4366 35.3023C57.745 35.3023 57.2571 35.772 57.2571 37.4231C57.2571 50.2857 57.2571 63.1504 57.2571 76.0131C57.2571 76.2844 57.2888 76.5579 57.3057 76.8355H69.9537H69.9558Z" fill="#65B947"/>
<path d="M46.1085 60.6288C46.1085 66.3817 46.1085 72.1367 46.1085 77.8896C46.1085 79.5094 45.6165 80 44.0009 80C39.0401 80 34.0772 80 29.1164 80C27.5769 80 27.0552 79.4969 27.0552 78.0023C27.0552 66.4944 27.051 54.9886 27.0552 43.4807C27.0552 40.3642 29.0277 38.4417 32.2082 38.4355C35.112 38.4292 38.0137 38.4313 40.9176 38.4355C44.1487 38.4417 46.1022 40.3538 46.1064 43.5246C46.1128 49.2253 46.1064 54.9281 46.1064 60.6288H46.1085ZM30.2294 76.8188H42.8985C42.9112 76.6142 42.9302 76.4618 42.9302 76.3094C42.9302 65.3276 42.9344 54.3436 42.9302 43.3618C42.9302 42.1427 42.3241 41.5728 41.0569 41.5708C38.1806 41.5645 35.3063 41.5687 32.4299 41.5708C30.694 41.5708 30.2315 42.03 30.2315 43.7479C30.2315 54.471 30.2315 65.1919 30.2315 75.9149C30.2315 76.1988 30.2315 76.4806 30.2315 76.8188H30.2294Z" fill="#65B947"/>
<path d="M-1.07847e-06 66.9558C-1.07847e-06 63.3383 -0.00211295 59.7208 -1.07847e-06 56.1033C0.0021108 52.9513 1.98938 50.9787 5.1762 50.9704C8.10537 50.962 11.0324 50.962 13.9616 50.9704C17.0618 50.9808 19.0829 52.9388 19.0892 55.9927C19.1061 63.332 19.0977 70.6714 19.0913 78.0107C19.0913 79.4468 18.5211 80 17.0787 80C12.0398 80.0021 7.00086 80.0021 1.96193 80C0.565981 80 -1.07847e-06 79.4364 -0.00211295 78.0441C-0.0063367 74.3473 -0.00211295 70.6526 -0.00211295 66.9558H-1.07847e-06ZM15.8623 76.8459C15.8813 76.5975 15.9066 76.418 15.9066 76.2385C15.9066 69.5003 15.913 62.7622 15.9045 56.0219C15.9045 54.663 15.3132 54.1098 13.8961 54.1057C11.0219 54.0973 8.14761 54.0994 5.27124 54.1057C3.73802 54.1078 3.17626 54.6693 3.17626 56.1826C3.17626 62.7914 3.17626 69.4001 3.17626 76.0089C3.17626 76.2823 3.17626 76.5558 3.17626 76.848H15.8623V76.8459Z" fill="#65B947"/>
</g>
<defs>
<clipPath id="clip0_6_1152">
<rect width="76" height="80" fill="white"/>
</clipPath>
</defs>
</svg>
