<svg width="91" height="91" viewBox="0 0 91 91" fill="none" xmlns="http://www.w3.org/2000/svg">
<g clip-path="url(#clip0_6_1131)">
<path d="M40.3457 0C42.1847 0.284375 44.0355 0.492917 45.8555 0.862604C51.4292 2.0001 56.4366 4.39359 60.9416 7.85112C61.771 8.48622 61.9724 9.23508 61.5008 9.89625C60.9937 10.6096 60.2211 10.657 59.3325 9.97208C54.8915 6.55247 49.9126 4.3462 44.4194 3.25372C30.7931 0.549792 16.1928 6.7231 8.52651 18.4417C4.36042 24.8093 2.44563 31.7908 2.68971 39.3836C3.185 54.9247 14.8444 68.8875 30.0679 72.1791C32.7126 72.7502 35.3715 73.082 38.0541 73.0512C37.6204 71.1506 37.1915 69.2738 36.7365 67.2831C35.6772 67.1552 34.4473 67.0627 33.2363 66.8542C24.3543 65.3304 17.5412 60.7141 12.7518 53.0928C12.5954 52.844 12.4177 52.5928 12.33 52.3155C12.131 51.6852 12.2826 51.1259 12.8632 50.768C13.4699 50.3936 14.0623 50.4837 14.5482 51.005C14.7472 51.2183 14.8847 51.4908 15.0434 51.7397C19.8399 59.2685 26.7004 63.4772 35.5492 64.482C35.8431 64.5152 36.1417 64.5176 36.4355 64.5223C36.5517 64.5223 36.6678 64.4986 36.8905 64.4725C36.8905 64.1195 36.8905 63.7711 36.8905 63.4227C36.8905 58.8609 36.8905 54.299 36.8905 49.7372C36.8905 48.076 37.2128 47.7513 38.8551 47.7513C46.4669 47.7513 54.081 47.7347 61.6928 47.7726C62.5009 47.7774 62.8113 47.493 63.0649 46.7821C68.6292 31.2647 58.5599 14.1832 42.27 11.529C27.4398 9.11422 13.65 19.1574 11.4319 34.0255C10.8394 38.002 11.1499 41.9382 12.3561 45.7891C12.4082 45.9574 12.4627 46.128 12.5125 46.2986C12.804 47.2916 12.5054 47.9883 11.6854 48.2347C10.9247 48.4622 10.2825 48.0594 9.97682 47.1067C8.03122 41.0638 7.93643 34.9923 9.88914 28.947C14.0789 15.9795 26.281 7.70419 39.8575 8.54784C53.8417 9.41755 65.5058 20.5556 67.0296 34.4757C67.4964 38.7461 67.1196 42.924 65.7736 47.0096C65.7096 47.2015 65.6669 47.4006 65.5721 47.7466C66.9537 47.7466 68.2666 47.7466 69.5818 47.7466C71.7123 47.7466 71.7454 47.7537 72.1673 45.7014C74.6082 33.8264 71.89 23.2974 63.8754 14.169C62.9488 13.1144 62.8161 12.3277 63.5152 11.7257C64.2166 11.1214 64.8849 11.2992 65.8328 12.3561C72.8545 20.1906 76.1248 29.3854 75.6485 39.8694C75.5395 42.2771 74.9636 44.6635 74.601 47.0593C74.5702 47.256 74.5299 47.4503 74.4754 47.7442C75.9281 47.7442 77.3121 47.7395 78.6984 47.7442C80.0682 47.7513 80.4876 48.1755 80.4923 49.5571C80.4971 50.9173 80.4923 52.2776 80.4923 53.7848C81.1038 53.7848 81.6559 53.7611 82.2057 53.7895C86.6988 54.0052 89.936 56.7826 90.8483 61.1809C90.8697 61.2899 90.9455 61.3871 90.9976 61.489V63.9773C90.9336 64.1668 90.8578 64.3517 90.8104 64.546C89.9383 68.0604 87.7984 70.4184 84.2935 71.3473C83.0612 71.6744 81.7152 71.6056 80.4189 71.6483C79.8809 71.6672 79.5966 71.7715 79.388 72.3332C78.1913 75.5537 76.1722 78.1628 73.3996 80.1937C73.2313 80.317 73.0867 80.471 72.8 80.7317C75.7741 80.7317 78.5539 80.7198 81.3336 80.7341C83.701 80.7459 84.8291 82.6631 83.7105 84.7603C82.3621 87.2842 80.362 89.1065 77.6913 90.1421C76.7647 90.5023 75.7812 90.7156 74.8238 90.9953H61.6715C61.1311 90.5142 60.6145 90.0213 60.9416 89.1918C61.2662 88.3719 61.9558 88.3221 62.7023 88.3245C66.3139 88.334 69.9254 88.3743 73.537 88.3127C76.6485 88.2582 79.0942 86.8671 80.8739 84.3172C81.0492 84.066 81.1725 83.7816 81.3384 83.4783H35.9687C36.2246 83.893 36.3905 84.2034 36.5967 84.4854C38.3883 86.9382 40.8078 88.2724 43.8459 88.315C48.0191 88.3719 52.1947 88.3387 56.3679 88.3245C57.1357 88.3221 57.8253 88.4359 58.086 89.2558C58.3466 90.071 57.8988 90.6066 57.2281 90.9976H42.6539C42.4264 90.9384 42.2036 90.8649 41.9738 90.8199C38.2295 90.0829 35.4189 88.0615 33.6179 84.6916C32.523 82.6417 33.6842 80.7507 36.0208 80.7364C38.5376 80.7222 41.0543 80.7364 43.571 80.7317C43.8506 80.7317 44.1326 80.708 44.2369 80.7009C42.8695 79.2506 41.4334 77.7837 40.0732 76.2528C39.7177 75.8523 39.412 75.684 38.893 75.6983C32.9377 75.857 27.2147 74.7646 21.8613 72.1459C10.4105 66.5461 3.32245 57.484 0.701458 44.9834C0.381536 43.4549 0.22987 41.8932 0 40.3457C0 38.6869 0 37.028 0 35.3691C0.0521354 35.1416 0.132708 34.9141 0.151667 34.6843C0.79388 27.0772 3.48596 20.2665 8.25872 14.323C14.1287 7.01458 21.6836 2.42667 30.9187 0.675391C32.3927 0.395755 33.8857 0.22276 35.3691 0C37.028 0 38.6869 0 40.3457 0ZM39.6348 50.4695C39.604 50.6259 39.5637 50.7372 39.5637 50.8486C39.5708 56.3252 39.4262 61.8065 39.6324 67.276C39.9097 74.665 46.0545 80.5303 53.453 80.708C56.4105 80.7791 59.3728 80.7412 62.3326 80.7293C63.3659 80.7246 64.418 80.753 65.4323 80.5919C72.8592 79.4093 77.8145 73.5607 77.8263 66.0153C77.8334 61.1596 77.8263 56.3063 77.8263 51.4505V50.4695H39.6324H39.6348ZM80.4449 68.9538C83.4498 69.2785 86.0069 68.5273 87.5425 65.7285C88.8293 63.3848 88.6041 61.0435 87.0093 58.8941C85.5447 56.9224 82.8076 55.9768 80.4473 56.6143V68.9538H80.4449Z" fill="#65B947"/>
<path d="M39.4025 34.5492C40.0898 33.7529 40.7699 32.9496 41.4619 32.1581C42.1467 31.376 42.9074 31.2362 43.5331 31.7671C44.1634 32.3003 44.1611 33.0894 43.4928 33.8785C42.0401 35.5919 40.5708 37.291 39.1158 39.0044C38.6655 39.5352 38.1655 39.9097 37.4285 39.6514C36.6867 39.3931 36.5351 38.7911 36.5374 38.0897C36.5422 34.0989 36.5351 30.1058 36.5446 26.1151C36.5469 25.0297 37.0138 24.4894 37.8716 24.4942C38.7177 24.4989 39.1916 25.0534 39.1987 26.1293C39.2129 28.5821 39.2035 31.0372 39.2035 33.4923C39.2035 33.8146 39.2035 34.1369 39.2035 34.4591C39.2698 34.49 39.3362 34.5184 39.4002 34.5492H39.4025Z" fill="#003C71"/>
<path d="M36.5706 16.162C36.5706 15.8089 36.5327 15.4487 36.5777 15.1003C36.6725 14.3799 37.1275 13.9936 37.8385 13.9818C38.5518 13.9676 39.0613 14.3396 39.1371 15.0529C39.2177 15.8113 39.2201 16.5909 39.1442 17.3493C39.0708 18.0981 38.5541 18.5057 37.8005 18.4749C37.092 18.4441 36.6536 18.0294 36.573 17.3137C36.5303 16.9345 36.5659 16.5459 36.5659 16.1644C36.5659 16.1644 36.5683 16.1644 36.5706 16.1644V16.162Z" fill="#003C71"/>
<path d="M16.1667 39.2153C15.8136 39.1987 15.4534 39.2153 15.1074 39.1608C14.3538 39.0399 13.9557 38.5636 13.9818 37.81C14.0078 37.0991 14.4131 36.6346 15.1335 36.5801C15.8373 36.5256 16.553 36.5232 17.2568 36.5706C18.0104 36.6204 18.4559 37.0825 18.4749 37.8361C18.4938 38.5921 18.0649 39.0565 17.3184 39.1608C16.9416 39.2129 16.553 39.1703 16.1691 39.1703C16.1691 39.1845 16.1691 39.1987 16.1691 39.2129L16.1667 39.2153Z" fill="#003C71"/>
<path d="M59.515 39.2248C59.1026 39.1987 58.6832 39.2129 58.2803 39.1347C57.6144 39.0044 57.2518 38.5399 57.2495 37.8787C57.2495 37.1749 57.6286 36.6678 58.3443 36.5943C59.0742 36.5185 59.8207 36.5303 60.5553 36.573C61.3231 36.618 61.7473 37.1157 61.7544 37.8551C61.7615 38.5992 61.3326 39.0731 60.5766 39.1679C60.2283 39.2106 59.8681 39.175 59.515 39.175C59.515 39.1916 59.515 39.2082 59.515 39.2248Z" fill="#003C71"/>
<path d="M24.5416 23.2737C24.4539 24.3449 23.2974 24.9255 22.4917 24.3022C21.8661 23.8188 21.2404 23.2595 20.8399 22.596C20.6172 22.2263 20.6764 21.4466 20.9347 21.0911C21.167 20.7736 22.0438 20.5105 22.295 20.693C23.1102 21.2855 23.7785 22.0841 24.4776 22.8258C24.5747 22.9277 24.5297 23.1671 24.5416 23.2714V23.2737Z" fill="#003C71"/>
<path d="M54.0882 20.5461C54.3085 20.7238 54.8204 20.9395 54.9555 21.2973C55.1072 21.7002 55.0764 22.3329 54.8465 22.6837C54.4484 23.288 53.9057 23.8662 53.2895 24.2311C52.8985 24.4634 52.126 24.4918 51.78 24.2477C51.434 24.0036 51.1164 23.1031 51.2965 22.8472C51.8724 22.0225 52.6805 21.3589 53.4151 20.6504C53.5004 20.5674 53.6995 20.6006 54.0882 20.5437V20.5461Z" fill="#003C71"/>
<path d="M24.6956 52.3842C24.4752 52.8321 24.3851 53.1592 24.1861 53.389C23.7619 53.8796 23.2974 54.3417 22.814 54.773C22.2429 55.2849 21.4703 55.2659 20.9726 54.7777C20.475 54.2895 20.4323 53.5028 20.9324 52.9388C21.3826 52.4316 21.8329 51.8842 22.3922 51.5264C22.7524 51.2941 23.3732 51.2065 23.7643 51.3557C24.1482 51.5003 24.3899 52.0264 24.6956 52.3842Z" fill="#003C71"/>
</g>
<defs>
<clipPath id="clip0_6_1131">
<rect width="91" height="91" fill="white"/>
</clipPath>
</defs>
</svg>
