<svg width="75" height="75" viewBox="0 0 75 75" fill="none" xmlns="http://www.w3.org/2000/svg">
<g clip-path="url(#clip0_6_1109)">
<path d="M7.47988 75.0004C6.71483 74.7715 5.91065 74.6287 5.19256 74.298C1.86627 72.768 0.0446425 70.1403 0.0289893 66.4775C-0.0199267 54.3995 0.00355301 42.3195 0.0152929 30.2415C0.0192061 25.4576 3.78965 21.7088 8.56973 21.6912C9.69284 21.6873 10.8159 21.6638 11.9371 21.701C12.4674 21.7186 12.8352 21.5581 13.2128 21.1805C19.4819 14.8881 25.7588 8.60356 32.0494 2.33269C35.1781 -0.786111 39.5962 -0.770459 42.7503 2.34443C43.9654 3.54382 45.1961 4.73147 46.3642 5.97782C47.0021 6.65871 47.5832 6.92872 48.6085 6.80154C51.8291 6.4024 54.3101 7.73288 55.9498 10.5347C58.0434 14.1114 60.0861 17.7154 62.1856 21.2881C62.3813 21.6208 62.7745 21.9358 63.1424 22.0532C66.6917 23.1919 69.1023 26.3831 69.1356 30.128C69.163 33.2762 69.1414 36.4243 69.1434 39.5705C69.1434 39.8327 69.1434 40.0949 69.1434 40.4353C69.613 40.4353 70.02 40.4353 70.4289 40.4353C72.6458 40.4471 74.2287 41.6367 74.8646 43.7615C74.8998 43.877 74.9566 43.9846 75.0035 44.0961V52.5916C74.9566 52.7031 74.8998 52.8108 74.8646 52.9262C74.2307 55.0432 72.6458 56.2348 70.4289 56.2524C70.0219 56.2563 69.613 56.2524 69.1454 56.2524C69.1454 56.5909 69.1454 56.855 69.1454 57.1172C69.1454 60.2634 69.1884 63.4096 69.1317 66.5558C69.0769 69.6589 67.717 72.1184 65.0501 73.711C64.0327 74.3195 62.8058 74.5798 61.6749 74.9985H40.731C40.5745 74.8889 40.4082 74.7911 40.2634 74.6659C39.7997 74.2648 39.5942 73.758 39.7644 73.1593C39.9405 72.541 40.373 72.1693 41.0167 72.0832C41.2574 72.0519 41.5039 72.0675 41.7485 72.0675C47.8982 72.0675 54.0479 72.0675 60.1996 72.0675C63.9074 72.0675 66.2143 69.749 66.2163 66.0295C66.2163 62.8089 66.2163 59.5884 66.2163 56.2504C65.9365 56.2504 65.6821 56.2504 65.4258 56.2504C62.033 56.2504 58.6402 56.2876 55.2493 56.2348C50.8253 56.1683 47.3758 52.529 47.4756 48.1169C47.5695 43.9846 50.9721 40.5253 55.1084 40.4529C58.5247 40.3923 61.941 40.4373 65.3593 40.4334C65.6215 40.4334 65.8836 40.4334 66.2182 40.4334V39.727C66.2182 36.6278 66.2241 33.5286 66.2182 30.4293C66.2104 27.0053 63.8331 24.6182 60.4207 24.6182C43.1905 24.6143 25.9603 24.6143 8.73017 24.6182C5.35496 24.6182 2.95221 27.0072 2.95025 30.3726C2.94438 42.3547 2.94243 54.3388 2.95025 66.321C2.95221 69.6472 5.34714 72.0558 8.66951 72.0636C15.0149 72.0773 21.3603 72.0656 27.7057 72.0695C28.8523 72.0695 29.6682 72.8071 29.404 73.7267C29.2671 74.2041 28.7681 74.5778 28.4316 74.9965H7.47988V75.0004ZM58.9982 21.6618C57.1159 18.4022 55.306 15.2599 53.4864 12.1215C52.0189 9.59164 49.5457 8.93227 47.0021 10.3978C40.733 14.0116 34.4698 17.6332 28.2046 21.2549C28.0305 21.3566 27.8661 21.4779 27.5883 21.6618H59.0002H58.9982ZM62.8019 53.3214V53.3253C65.2888 53.3253 67.7757 53.3293 70.2626 53.3253C71.552 53.3234 72.0666 52.799 72.0686 51.492C72.0725 49.3946 72.0725 47.299 72.0686 45.2016C72.0666 43.8907 71.5559 43.3682 70.2665 43.3682C65.3416 43.3663 60.4148 43.3585 55.49 43.378C54.9382 43.38 54.3649 43.4641 53.8405 43.6304C51.5591 44.3505 50.1014 46.6592 50.4262 48.9641C50.7745 51.4333 52.7918 53.2803 55.2669 53.3156C57.7773 53.3527 60.2896 53.3234 62.8019 53.3234V53.3214ZM16.8639 21.6892C18.3275 21.6892 19.6208 21.7147 20.9103 21.6736C21.327 21.6599 21.7868 21.5601 22.1429 21.3547C29.4725 17.1421 36.7904 12.91 44.1082 8.67791C44.2667 8.58595 44.4095 8.46856 44.6071 8.32768C43.3353 7.05786 42.1105 5.83695 40.8856 4.61603C38.6296 2.364 36.1584 2.35422 33.918 4.59451C28.4335 10.0769 22.9491 15.5612 17.4666 21.0455C17.2983 21.2138 17.1418 21.3899 16.862 21.6853L16.8639 21.6892Z" fill="#65B947"/>
<path d="M34.1375 75C34.0025 74.9041 33.8636 74.8141 33.7305 74.7143C33.0046 74.1587 32.9087 73.196 33.5094 72.5464C34.0906 71.9184 35.0591 71.9184 35.6402 72.5464C36.2429 73.196 36.145 74.1587 35.4191 74.7143C35.288 74.8141 35.1491 74.9061 35.0141 75.0019H34.1356L34.1375 75Z" fill="#65B947"/>
<path d="M56.5704 48.3317C56.5743 49.1417 55.956 49.7854 55.1577 49.8011C54.3496 49.8167 53.6511 49.1202 53.6667 48.3141C53.6824 47.5334 54.3574 46.8779 55.1381 46.8819C55.9384 46.8858 56.5665 47.5217 56.5704 48.3317Z" fill="#65B947"/>
<mask id="mask0_6_1109" style="mask-type:alpha" maskUnits="userSpaceOnUse" x="0" y="0" width="75" height="75">
<g clip-path="url(#clip1_6_1109)">
<path d="M7.47988 75.0004C6.71483 74.7715 5.91065 74.6287 5.19256 74.298C1.86627 72.768 0.0446425 70.1403 0.0289893 66.4775C-0.0199267 54.3995 0.00355301 42.3195 0.0152929 30.2415C0.0192061 25.4576 3.78965 21.7088 8.56973 21.6912C9.69284 21.6873 10.8159 21.6638 11.9371 21.701C12.4674 21.7186 12.8352 21.5581 13.2128 21.1805C19.4819 14.8881 25.7588 8.60356 32.0494 2.33269C35.1781 -0.786111 39.5962 -0.770459 42.7503 2.34443C43.9654 3.54382 45.1961 4.73147 46.3642 5.97782C47.0021 6.65871 47.5832 6.92872 48.6085 6.80154C51.8291 6.4024 54.3101 7.73288 55.9498 10.5347C58.0434 14.1114 60.0861 17.7154 62.1856 21.2881C62.3813 21.6208 62.7745 21.9358 63.1424 22.0532C66.6917 23.1919 69.1023 26.3831 69.1356 30.128C69.163 33.2762 69.1414 36.4243 69.1434 39.5705C69.1434 39.8327 69.1434 40.0949 69.1434 40.4353C69.613 40.4353 70.02 40.4353 70.4289 40.4353C72.6458 40.4471 74.2287 41.6367 74.8646 43.7615C74.8998 43.877 74.9566 43.9846 75.0035 44.0961V52.5916C74.9566 52.7031 74.8998 52.8108 74.8646 52.9262C74.2307 55.0432 72.6458 56.2348 70.4289 56.2524C70.0219 56.2563 69.613 56.2524 69.1454 56.2524C69.1454 56.5909 69.1454 56.855 69.1454 57.1172C69.1454 60.2634 69.1884 63.4096 69.1317 66.5558C69.0769 69.6589 67.717 72.1184 65.0501 73.711C64.0327 74.3195 62.8058 74.5798 61.6749 74.9985H40.731C40.5745 74.8889 40.4082 74.7911 40.2634 74.6659C39.7997 74.2648 39.5942 73.758 39.7644 73.1593C39.9405 72.541 40.373 72.1693 41.0167 72.0832C41.2574 72.0519 41.5039 72.0675 41.7485 72.0675C47.8982 72.0675 54.0479 72.0675 60.1996 72.0675C63.9074 72.0675 66.2143 69.749 66.2163 66.0295C66.2163 62.8089 66.2163 59.5884 66.2163 56.2504C65.9365 56.2504 65.6821 56.2504 65.4258 56.2504C62.033 56.2504 58.6402 56.2876 55.2493 56.2348C50.8253 56.1683 47.3758 52.529 47.4756 48.1169C47.5695 43.9846 50.9721 40.5253 55.1084 40.4529C58.5247 40.3923 61.941 40.4373 65.3593 40.4334C65.6215 40.4334 65.8836 40.4334 66.2182 40.4334V39.727C66.2182 36.6278 66.2241 33.5286 66.2182 30.4293C66.2104 27.0053 63.8331 24.6182 60.4207 24.6182C43.1905 24.6143 25.9603 24.6143 8.73017 24.6182C5.35496 24.6182 2.95221 27.0072 2.95025 30.3726C2.94438 42.3547 2.94243 54.3388 2.95025 66.321C2.95221 69.6472 5.34714 72.0558 8.66951 72.0636C15.0149 72.0773 21.3603 72.0656 27.7057 72.0695C28.8523 72.0695 29.6682 72.8071 29.404 73.7267C29.2671 74.2041 28.7681 74.5778 28.4316 74.9965H7.47988V75.0004ZM58.9982 21.6618C57.1159 18.4022 55.306 15.2599 53.4864 12.1215C52.0189 9.59164 49.5457 8.93227 47.0021 10.3978C40.733 14.0116 34.4698 17.6332 28.2046 21.2549C28.0305 21.3566 27.8661 21.4779 27.5883 21.6618H59.0002H58.9982ZM62.8019 53.3214V53.3253C65.2888 53.3253 67.7757 53.3293 70.2626 53.3253C71.552 53.3234 72.0666 52.799 72.0686 51.492C72.0725 49.3946 72.0725 47.299 72.0686 45.2016C72.0666 43.8907 71.5559 43.3682 70.2665 43.3682C65.3416 43.3663 60.4148 43.3585 55.49 43.378C54.9382 43.38 54.3649 43.4641 53.8405 43.6304C51.5591 44.3505 50.1014 46.6592 50.4262 48.9641C50.7745 51.4333 52.7918 53.2803 55.2669 53.3156C57.7773 53.3527 60.2896 53.3234 62.8019 53.3234V53.3214ZM16.8639 21.6892C18.3275 21.6892 19.6208 21.7147 20.9103 21.6736C21.327 21.6599 21.7868 21.5601 22.1429 21.3547C29.4725 17.1421 36.7904 12.91 44.1082 8.67791C44.2667 8.58595 44.4095 8.46856 44.6071 8.32768C43.3353 7.05786 42.1105 5.83695 40.8856 4.61603C38.6296 2.364 36.1584 2.35422 33.918 4.59451C28.4335 10.0769 22.9491 15.5612 17.4666 21.0455C17.2983 21.2138 17.1418 21.3899 16.862 21.6853L16.8639 21.6892Z" fill="#003C71"/>
<path d="M34.1375 75C34.0025 74.9041 33.8636 74.8141 33.7305 74.7143C33.0046 74.1587 32.9087 73.196 33.5094 72.5464C34.0906 71.9184 35.0591 71.9184 35.6402 72.5464C36.2429 73.196 36.145 74.1587 35.4191 74.7143C35.288 74.8141 35.1491 74.9061 35.0141 75.0019H34.1356L34.1375 75Z" fill="#003C71"/>
<path d="M56.5704 48.3317C56.5743 49.1417 55.956 49.7854 55.1577 49.8011C54.3496 49.8167 53.6511 49.1202 53.6667 48.3141C53.6824 47.5334 54.3574 46.8779 55.1381 46.8819C55.9384 46.8858 56.5665 47.5217 56.5704 48.3317Z" fill="#003C71"/>
</g>
</mask>
<g mask="url(#mask0_6_1109)">
<rect x="-16.3636" y="-40.9091" width="109.091" height="62.7273" fill="#003C71"/>
</g>
</g>
<defs>
<clipPath id="clip0_6_1109">
<rect width="75" height="75" fill="white"/>
</clipPath>
<clipPath id="clip1_6_1109">
<rect width="75" height="75" fill="white"/>
</clipPath>
</defs>
</svg>
