<svg width="75" height="75" viewBox="0 0 75 75" fill="none" xmlns="http://www.w3.org/2000/svg">
<g clip-path="url(#clip0_6_1140)">
<path d="M47.1675 0.00434997C54.8736 0.00434997 62.5797 0.00434997 70.2837 0.00434997C73.2561 0.00434997 74.726 1.47899 74.726 4.45872C74.726 15.7208 74.726 26.9807 74.726 38.2428C74.726 41.2334 73.2626 42.7037 70.2924 42.7058C60.8772 42.7058 51.4619 42.7058 42.0467 42.7058C40.679 42.7058 39.9897 42.2382 39.968 41.3008C39.9484 40.3416 40.6529 39.8588 42.0793 39.8588C51.4402 39.8588 60.8011 39.8588 70.1619 39.8588C71.7253 39.8588 71.8819 39.7 71.8819 38.1297C71.8819 26.922 71.8819 15.7164 71.8819 4.50874C71.8819 3.04715 71.7688 2.93405 70.3033 2.93405C54.8649 2.93405 39.4265 2.93405 23.9882 2.93405C22.5618 2.93405 22.4835 3.0167 22.5009 4.47394C22.5183 5.88768 21.9986 6.64458 21.007 6.6424C20.046 6.6424 19.6111 5.93988 19.5632 4.51744C19.511 2.95145 19.9329 1.63124 21.2593 0.687295C22.0529 0.123974 22.9444 0 23.8881 0C31.6486 0.00869994 39.407 0.00434997 47.1675 0.00434997Z" fill="#003C71"/>
<path d="M20.9918 38.0883C14.7273 38.0883 8.46283 38.0883 2.19833 38.0883C1.90044 38.0883 1.59819 38.097 1.30465 38.0557C0.476193 37.9404 -0.010877 37.3684 -4.86491e-06 36.5637C0.0130416 35.7589 0.519681 35.2065 1.39162 35.1826C2.96373 35.1434 4.538 35.1238 6.11011 35.176C6.94073 35.2043 7.31691 34.8846 7.53435 34.0972C7.96706 32.5334 8.47152 30.987 8.99121 29.4493C9.80662 27.0351 11.5266 25.4952 13.901 24.7448C14.5316 24.5447 15.4123 24.5947 16.0015 24.8862C19.398 26.5674 22.7118 26.537 26.0517 24.7579C26.554 24.4903 27.1911 24.362 27.7673 24.3577C32.8924 24.3272 38.0197 24.325 43.1448 24.3468C46.2281 24.3598 48.0546 27.2047 46.8174 30.0235C46.2868 31.2306 45.3714 31.9679 44.0559 32.1593C43.6014 32.2246 43.1383 32.2529 42.6795 32.255C39.4244 32.2637 36.1693 32.2964 32.9163 32.2442C31.2159 32.2159 30.9593 33.212 31.1007 34.5127C31.1681 35.1456 31.6573 35.1608 32.1357 35.1608C34.658 35.1608 37.1804 35.1608 39.7027 35.1608C40.0006 35.1608 40.3006 35.1543 40.5964 35.1847C41.4031 35.2674 41.8706 35.7807 41.888 36.5789C41.9075 37.4119 41.4335 37.9687 40.5985 38.0622C40.3028 38.097 40.0028 38.0883 39.7049 38.0883C33.4665 38.0883 27.2302 38.0883 20.9918 38.0883ZM37.7305 29.3949C39.52 29.3949 41.3117 29.4058 43.1013 29.3906C43.8297 29.384 44.2972 28.9469 44.2994 28.3422C44.2994 27.7441 43.8189 27.3113 43.1035 27.2743C42.9143 27.2634 42.7229 27.2721 42.5338 27.2721C37.9218 27.2721 33.3121 27.2482 28.7023 27.2939C27.9173 27.3026 27.0824 27.4875 26.3583 27.7941C22.864 29.2709 19.3675 29.3601 15.8384 27.9768C14.4359 27.4266 13.8358 27.4896 12.8138 28.6119C12.3159 29.16 11.9093 29.8364 11.6179 30.5216C11.2178 31.4655 10.9417 32.4638 10.659 33.4513C10.235 34.9368 10.4981 35.2348 12.0332 35.2108C12.616 35.2021 12.9443 34.9716 13.0835 34.4126C13.1683 34.0711 13.2661 33.7275 13.4162 33.4121C13.7227 32.7683 14.262 32.5051 14.9578 32.653C15.6428 32.7988 16.0515 33.2338 16.0994 33.9493C16.1755 35.0977 16.2298 35.1586 17.3801 35.1586C20.5809 35.1608 23.7816 35.1608 26.9823 35.1586C28.0543 35.1586 28.1935 35.0129 28.2065 33.9341C28.237 31.2197 30.0526 29.4123 32.7728 29.3993C34.4275 29.3906 36.0823 29.3993 37.737 29.3971L37.7305 29.3949Z" fill="#003C71"/>
<path d="M20.9505 39.911C25.9408 39.911 30.9311 39.911 35.9192 39.911C36.191 39.911 36.4628 39.9001 36.7324 39.9284C37.4826 40.0045 37.9784 40.5374 37.9979 41.266C38.0175 41.9903 37.5435 42.5862 36.8238 42.6993C36.5324 42.745 36.228 42.7254 35.9301 42.7254C27.4955 42.7254 19.0631 42.7254 10.6286 42.7254C9.31521 42.7254 9.11516 42.956 9.29129 44.2588C9.95449 49.146 10.6264 54.031 11.2744 58.9204C11.3635 59.6011 11.6897 59.8339 12.3507 59.8317C15.5775 59.8143 18.8044 59.8208 22.0312 59.8273C22.3269 59.8273 22.6379 59.8273 22.9118 59.9187C23.5881 60.1362 23.9208 60.6451 23.8686 61.3476C23.8164 62.0502 23.4163 62.4939 22.7096 62.6135C22.4704 62.6548 22.2225 62.6526 21.9812 62.6548C18.2107 62.657 14.4425 62.6592 10.672 62.6548C9.24998 62.6548 8.86075 62.2764 8.67158 60.8778C7.90401 55.1859 7.11687 49.494 6.34713 43.802C6.25798 43.1343 6.04488 42.7232 5.25122 42.6863C4.33797 42.6428 3.77914 41.9794 3.8335 41.2182C3.89221 40.4308 4.47713 39.9197 5.40778 39.9175C10.5872 39.9088 15.7667 39.9132 20.9462 39.911H20.9505Z" fill="#003C71"/>
<path d="M70.9534 54.1658C70.9599 58.7703 67.159 62.5634 62.5623 62.5417C58.0091 62.5199 54.2778 58.8007 54.2582 54.2637C54.2387 49.7528 58.0635 45.7747 62.4036 45.79C67.2004 45.8074 70.949 49.4787 70.9534 54.1658ZM62.1622 48.7044C60.751 48.7197 59.205 49.507 58.1091 51.0795C57.8656 51.4297 57.696 52.0256 57.8286 52.3802C57.9156 52.6151 58.6158 52.7369 59.0289 52.7108C60.7315 52.5977 62.0492 51.7712 63.0255 50.377C63.5713 49.5984 64.1866 49.3678 64.8911 49.6484C65.8522 50.0312 66.1349 51.086 65.4652 52.0126C63.8409 54.2637 61.6382 55.4599 58.8549 55.6231C58.4722 55.6448 57.9526 55.8362 57.7808 56.1211C57.6416 56.3517 57.8438 56.8976 58.0439 57.2043C59.479 59.3967 62.3362 60.271 64.7106 59.2836C67.1177 58.2831 68.4767 55.7122 67.9744 53.1088C67.4743 50.514 65.3195 48.7262 62.1622 48.7066V48.7044Z" fill="#65B947"/>
<path d="M34.7885 62.4503C30.2222 62.4373 26.4627 58.6876 26.4974 54.1811C26.5344 49.6136 30.2744 45.8008 34.7233 45.7943C39.4265 45.79 43.1861 49.5222 43.1687 54.1767C43.1491 58.7637 39.4048 62.4612 34.7885 62.4482V62.4503ZM40.305 54.2572C40.3093 51.7734 38.7351 49.644 36.3889 48.9654C34.0709 48.2955 31.5508 49.2286 30.3027 51.2709C30.1135 51.5798 29.9374 52.1692 30.0896 52.3519C30.3049 52.6129 30.8376 52.7412 31.2203 52.7151C32.9729 52.602 34.371 51.8016 35.3669 50.3422C35.7322 49.8072 36.1671 49.4461 36.8542 49.6005C37.9523 49.8463 38.4067 51.0012 37.7348 51.9604C36.1236 54.2615 33.9057 55.4947 31.0833 55.6057C29.9352 55.6513 29.683 56.1233 30.2744 57.1021C31.516 59.1509 33.997 60.1318 36.3345 59.4967C38.6894 58.8573 40.3006 56.7323 40.305 54.2572Z" fill="#65B947"/>
<path d="M20.7766 24.1619C16.2059 24.1619 12.4377 20.3622 12.4768 15.8013C12.5159 11.2403 16.3081 7.49719 20.8701 7.51459C25.4646 7.53199 29.185 11.2882 29.1568 15.8796C29.1285 20.4644 25.3863 24.1641 20.7766 24.1619ZM26.3061 15.81C26.2952 13.3218 24.6361 11.1599 22.2552 10.5269C19.8894 9.89837 17.3649 10.9032 16.1537 12.9977C15.9863 13.287 15.8602 13.7807 15.9972 14.0113C16.1385 14.2483 16.6278 14.381 16.9626 14.3788C18.7391 14.3614 20.1221 13.5502 21.1853 12.1495C21.8203 11.3121 22.6618 11.1294 23.3576 11.6579C24.0599 12.1908 24.123 13.0369 23.475 13.8829C21.8072 16.0579 19.5958 17.2085 16.8539 17.3238C15.8102 17.3673 15.5906 17.7544 16.1168 18.6462C17.354 20.7385 19.885 21.7738 22.2204 21.1452C24.6688 20.484 26.317 18.333 26.3061 15.8122V15.81Z" fill="#003C71"/>
<path d="M22.5052 72.0224C22.44 68.2206 23.9708 65.3213 27.3411 63.466C28.5131 62.8201 29.696 62.7853 30.9224 63.3551C33.5317 64.5644 36.1627 64.5796 38.7742 63.3682C40.0267 62.7874 41.2313 62.8179 42.4316 63.4813C45.4866 65.1712 47.0718 67.7747 47.2349 71.2481C47.2718 72.005 47.2631 72.7663 47.2349 73.5253C47.2044 74.4236 46.6391 74.9935 45.8302 74.9978C45.0148 75.0022 44.4603 74.4562 44.4146 73.5449C44.3733 72.7336 44.406 71.918 44.3581 71.1068C44.245 69.1775 43.3601 67.6551 41.8641 66.4588C41.2096 65.9346 40.5137 65.8411 39.7353 66.1456C36.4867 67.4136 33.2338 67.4093 29.9852 66.1456C29.1742 65.8281 28.4609 65.9694 27.7912 66.5197C26.1539 67.8617 25.3602 69.5951 25.3298 71.6962C25.3211 72.2921 25.3472 72.8902 25.3189 73.4862C25.2776 74.3497 24.6557 74.9543 23.8773 74.9282C23.1228 74.9021 22.5422 74.3083 22.5074 73.4905C22.4857 73.0033 22.503 72.514 22.503 72.0268L22.5052 72.0224Z" fill="#65B947"/>
<path d="M50.3117 71.9637C50.2247 68.1814 51.7794 65.317 55.1041 63.4617C56.2739 62.8092 57.4655 62.7875 58.6897 63.3551C61.3033 64.5688 63.9344 64.5709 66.548 63.3638C67.8048 62.7831 69.0095 62.8223 70.2076 63.49C73.1343 65.1212 74.7521 67.5942 74.9652 70.9502C75.0196 71.8158 75.0043 72.6858 74.9761 73.5536C74.9478 74.4562 74.3803 75.0087 73.5605 75C72.7495 74.9913 72.208 74.4171 72.1689 73.5145C72.1211 72.4596 72.1602 71.3939 72.0145 70.3542C71.7862 68.723 70.8925 67.4484 69.6031 66.4393C68.9964 65.9651 68.3354 65.839 67.62 66.1195C64.3149 67.4115 61.012 67.418 57.7069 66.1152C56.9936 65.8346 56.3283 65.939 55.7194 66.4153C54.0582 67.7138 53.1819 69.4125 53.1297 71.5244C53.1123 72.203 53.1428 72.8816 53.1167 73.558C53.084 74.4475 52.51 75.0087 51.6881 74.9978C50.8966 74.9869 50.3595 74.4519 50.3182 73.5906C50.2921 73.049 50.3138 72.5053 50.3138 71.9637H50.3117Z" fill="#65B947"/>
<path d="M50.603 10.8162C45.8867 10.8162 41.1704 10.8162 36.4541 10.8162C36.2106 10.8162 35.9627 10.8336 35.7235 10.801C34.982 10.6987 34.5384 10.2398 34.4602 9.52208C34.3797 8.79998 34.7189 8.24536 35.4299 8.01916C35.7561 7.91476 36.1214 7.90606 36.4693 7.90606C45.9019 7.89954 55.3346 7.90172 64.7672 7.90172C64.8476 7.90172 64.9303 7.90172 65.0107 7.90172C66.111 7.91912 66.785 8.48026 66.7829 9.37418C66.7785 10.2659 66.1088 10.8118 64.9977 10.8118C60.2009 10.814 55.402 10.8118 50.6052 10.8118L50.603 10.8162Z" fill="#65B947"/>
<path d="M54.3365 13.5784C57.8091 13.5784 61.2816 13.5784 64.7541 13.5784C64.9977 13.5784 65.2456 13.5632 65.4848 13.5958C66.2393 13.698 66.7785 14.3092 66.7829 15.0335C66.7851 15.7578 66.2501 16.3754 65.4978 16.4798C65.2303 16.5168 64.9564 16.5016 64.6846 16.5016C57.7938 16.5016 50.9031 16.5016 44.0146 16.5016C43.8254 16.5016 43.634 16.5081 43.4449 16.4972C42.5468 16.4429 41.9206 15.8165 41.9423 15.003C41.9641 14.2135 42.5664 13.6219 43.4318 13.5849C44.082 13.5567 44.7343 13.5762 45.3844 13.5762C48.3677 13.5762 51.3532 13.5762 54.3365 13.5762V13.5784Z" fill="#65B947"/>
<path d="M59.142 19.2312C61.0663 19.2312 62.9929 19.2269 64.9172 19.2312C66.0762 19.2334 66.7329 19.7402 66.7437 20.6167C66.7546 21.4997 66.0805 22.0413 64.9498 22.0413C60.9641 22.0435 56.9784 22.0413 52.9927 22.0435C52.2621 22.0435 51.712 21.7672 51.4945 21.0495C51.3054 20.4209 51.4597 19.8293 52.0403 19.4879C52.3447 19.3073 52.7557 19.2443 53.121 19.2399C55.128 19.2182 57.135 19.229 59.1398 19.229L59.142 19.2312Z" fill="#65B947"/>
</g>
<defs>
<clipPath id="clip0_6_1140">
<rect width="75" height="75" fill="white"/>
</clipPath>
</defs>
</svg>
